<svg preserveAspectRatio="none" overflow="visible" style="display: block;" width="16" height="17" viewBox="0 0 16 17" fill="none" xmlns="http://www.w3.org/2000/svg">
<g id="image" clip-path="url(#clip0_0_153)">
<path id="Vector" fill-rule="evenodd" clip-rule="evenodd" d="M15 0H0V16H1V1H15V0Z" fill="#DFDFDF"/>
<path id="Vector_2" fill-rule="evenodd" clip-rule="evenodd" d="M2 1H1V15H2V2H14V1H2Z" fill="white"/>
<path id="Vector_3" fill-rule="evenodd" clip-rule="evenodd" d="M16 17H0V16H15V0H16V17Z" fill="black"/>
<path id="Vector_4" fill-rule="evenodd" clip-rule="evenodd" d="M15 1H14V15H1V16H15V1Z" fill="#808080"/>
<path id="Vector_5" d="M2 2H14V15H2V2Z" fill="#C0C0C0"/>
<path id="Vector_6" fill-rule="evenodd" clip-rule="evenodd" d="M11 6H4V7H5V8H6V9H7V10H8V9H9V8H10V7H11V6Z" fill="black"/>
</g>
<defs>
<clipPath id="clip0_0_153">
<rect width="16" height="17" fill="white"/>
</clipPath>
</defs>
</svg>
